<mxfile host="app.diagrams.net" modified="2023-06-23T09:06:30.052Z" agent="Mozilla/5.0 (Windows NT 10.0; Win64; x64) AppleWebKit/537.36 (KHTML, like Gecko) Chrome/114.0.0.0 Safari/537.36 Edg/114.0.1823.51" etag="ceGvgZKQnXLm-a7w6kuM" version="21.3.7" type="github">
  <diagram name="第 1 页" id="Pv7ujq7x31SczTUlhnTl">
    <mxGraphModel dx="891" dy="478" grid="0" gridSize="10" guides="1" tooltips="1" connect="1" arrows="1" fold="1" page="1" pageScale="1" pageWidth="2336" pageHeight="1654" math="0" shadow="0">
      <root>
        <mxCell id="0" />
        <mxCell id="1" parent="0" />
        <mxCell id="i07Ub8UZMQ4JzRdAZHp2-1" value="" style="line;strokeWidth=1;fillColor=none;align=left;verticalAlign=middle;spacingTop=-1;spacingLeft=3;spacingRight=3;rotatable=0;labelPosition=right;points=[];portConstraint=eastwest;strokeColor=inherit;" vertex="1" parent="1">
          <mxGeometry x="305" y="170" width="860" height="8" as="geometry" />
        </mxCell>
        <mxCell id="i07Ub8UZMQ4JzRdAZHp2-2" value="顾客" style="text;align=center;fontStyle=1;verticalAlign=middle;spacingLeft=3;spacingRight=3;strokeColor=none;rotatable=0;points=[[0,0.5],[1,0.5]];portConstraint=eastwest;html=1;" vertex="1" parent="1">
          <mxGeometry x="352" y="151" width="48" height="16" as="geometry" />
        </mxCell>
        <mxCell id="i07Ub8UZMQ4JzRdAZHp2-3" value="代办消息" style="text;align=center;fontStyle=1;verticalAlign=middle;spacingLeft=3;spacingRight=3;strokeColor=none;rotatable=0;points=[[0,0.5],[1,0.5]];portConstraint=eastwest;html=1;" vertex="1" parent="1">
          <mxGeometry x="877" y="149" width="48" height="16" as="geometry" />
        </mxCell>
        <mxCell id="i07Ub8UZMQ4JzRdAZHp2-4" value="联系管理员" style="text;align=center;fontStyle=1;verticalAlign=middle;spacingLeft=3;spacingRight=3;strokeColor=none;rotatable=0;points=[[0,0.5],[1,0.5]];portConstraint=eastwest;html=1;" vertex="1" parent="1">
          <mxGeometry x="519" y="151" width="48" height="16" as="geometry" />
        </mxCell>
        <mxCell id="i07Ub8UZMQ4JzRdAZHp2-5" value="管理员" style="text;align=center;fontStyle=1;verticalAlign=middle;spacingLeft=3;spacingRight=3;strokeColor=none;rotatable=0;points=[[0,0.5],[1,0.5]];portConstraint=eastwest;html=1;" vertex="1" parent="1">
          <mxGeometry x="1064" y="151" width="48" height="16" as="geometry" />
        </mxCell>
        <mxCell id="i07Ub8UZMQ4JzRdAZHp2-6" style="edgeStyle=orthogonalEdgeStyle;rounded=0;orthogonalLoop=1;jettySize=auto;html=1;" edge="1" parent="1" source="i07Ub8UZMQ4JzRdAZHp2-7" target="i07Ub8UZMQ4JzRdAZHp2-9">
          <mxGeometry relative="1" as="geometry" />
        </mxCell>
        <mxCell id="i07Ub8UZMQ4JzRdAZHp2-7" value="" style="ellipse;html=1;shape=startState;fillColor=#000000;strokeColor=#ff0000;" vertex="1" parent="1">
          <mxGeometry x="361" y="178" width="30" height="30" as="geometry" />
        </mxCell>
        <mxCell id="i07Ub8UZMQ4JzRdAZHp2-8" style="edgeStyle=orthogonalEdgeStyle;rounded=0;orthogonalLoop=1;jettySize=auto;html=1;" edge="1" parent="1" source="i07Ub8UZMQ4JzRdAZHp2-9" target="i07Ub8UZMQ4JzRdAZHp2-10">
          <mxGeometry relative="1" as="geometry" />
        </mxCell>
        <mxCell id="i07Ub8UZMQ4JzRdAZHp2-9" value="点击更换寝室" style="html=1;whiteSpace=wrap;" vertex="1" parent="1">
          <mxGeometry x="333" y="272" width="86" height="42" as="geometry" />
        </mxCell>
        <mxCell id="i07Ub8UZMQ4JzRdAZHp2-10" value="显示基本信息" style="html=1;whiteSpace=wrap;" vertex="1" parent="1">
          <mxGeometry x="496" y="272" width="86" height="42" as="geometry" />
        </mxCell>
        <mxCell id="i07Ub8UZMQ4JzRdAZHp2-11" style="edgeStyle=orthogonalEdgeStyle;rounded=0;orthogonalLoop=1;jettySize=auto;html=1;entryX=0.5;entryY=0;entryDx=0;entryDy=0;" edge="1" parent="1" source="i07Ub8UZMQ4JzRdAZHp2-12" target="i07Ub8UZMQ4JzRdAZHp2-14">
          <mxGeometry relative="1" as="geometry" />
        </mxCell>
        <mxCell id="i07Ub8UZMQ4JzRdAZHp2-12" value="查询管理员" style="html=1;whiteSpace=wrap;" vertex="1" parent="1">
          <mxGeometry x="698" y="379" width="86" height="42" as="geometry" />
        </mxCell>
        <mxCell id="i07Ub8UZMQ4JzRdAZHp2-13" style="edgeStyle=orthogonalEdgeStyle;rounded=0;orthogonalLoop=1;jettySize=auto;html=1;" edge="1" parent="1" source="i07Ub8UZMQ4JzRdAZHp2-14" target="i07Ub8UZMQ4JzRdAZHp2-21">
          <mxGeometry relative="1" as="geometry" />
        </mxCell>
        <mxCell id="i07Ub8UZMQ4JzRdAZHp2-14" value="" style="rhombus;whiteSpace=wrap;html=1;" vertex="1" parent="1">
          <mxGeometry x="701" y="462" width="80" height="33" as="geometry" />
        </mxCell>
        <mxCell id="i07Ub8UZMQ4JzRdAZHp2-15" value="" style="ellipse;html=1;shape=endState;fillColor=#000000;strokeColor=#ff0000;" vertex="1" parent="1">
          <mxGeometry x="363" y="1111" width="30" height="30" as="geometry" />
        </mxCell>
        <mxCell id="i07Ub8UZMQ4JzRdAZHp2-16" value="" style="endArrow=classic;html=1;rounded=0;" edge="1" parent="1">
          <mxGeometry width="50" height="50" relative="1" as="geometry">
            <mxPoint x="377.66" y="1019" as="sourcePoint" />
            <mxPoint x="377.66" y="1110.1923076923076" as="targetPoint" />
          </mxGeometry>
        </mxCell>
        <mxCell id="i07Ub8UZMQ4JzRdAZHp2-17" value="" style="endArrow=none;dashed=1;html=1;dashPattern=1 3;strokeWidth=2;rounded=0;" edge="1" parent="1">
          <mxGeometry width="50" height="50" relative="1" as="geometry">
            <mxPoint x="446" y="1152" as="sourcePoint" />
            <mxPoint x="446" y="88" as="targetPoint" />
          </mxGeometry>
        </mxCell>
        <mxCell id="i07Ub8UZMQ4JzRdAZHp2-18" value="" style="endArrow=classic;html=1;rounded=0;exitX=0.43;exitY=1.024;exitDx=0;exitDy=0;entryX=0.5;entryY=0;entryDx=0;entryDy=0;exitPerimeter=0;" edge="1" parent="1" source="i07Ub8UZMQ4JzRdAZHp2-10" target="i07Ub8UZMQ4JzRdAZHp2-12">
          <mxGeometry width="50" height="50" relative="1" as="geometry">
            <mxPoint x="537.6600000000001" y="366.92999999999995" as="sourcePoint" />
            <mxPoint x="905" y="466" as="targetPoint" />
          </mxGeometry>
        </mxCell>
        <mxCell id="i07Ub8UZMQ4JzRdAZHp2-19" value="[查询请求]" style="text;html=1;strokeColor=none;fillColor=none;align=center;verticalAlign=middle;whiteSpace=wrap;rounded=0;" vertex="1" parent="1">
          <mxGeometry x="629.5" y="321" width="60" height="30" as="geometry" />
        </mxCell>
        <mxCell id="i07Ub8UZMQ4JzRdAZHp2-20" style="edgeStyle=orthogonalEdgeStyle;rounded=0;orthogonalLoop=1;jettySize=auto;html=1;" edge="1" parent="1" source="i07Ub8UZMQ4JzRdAZHp2-21" target="i07Ub8UZMQ4JzRdAZHp2-25">
          <mxGeometry relative="1" as="geometry" />
        </mxCell>
        <mxCell id="i07Ub8UZMQ4JzRdAZHp2-21" value="查询失败处理" style="html=1;whiteSpace=wrap;" vertex="1" parent="1">
          <mxGeometry x="492.5" y="457.5" width="86" height="42" as="geometry" />
        </mxCell>
        <mxCell id="i07Ub8UZMQ4JzRdAZHp2-65" style="edgeStyle=orthogonalEdgeStyle;rounded=0;orthogonalLoop=1;jettySize=auto;html=1;" edge="1" parent="1" source="i07Ub8UZMQ4JzRdAZHp2-23" target="i07Ub8UZMQ4JzRdAZHp2-64">
          <mxGeometry relative="1" as="geometry" />
        </mxCell>
        <mxCell id="i07Ub8UZMQ4JzRdAZHp2-23" value="反馈信息" style="html=1;whiteSpace=wrap;" vertex="1" parent="1">
          <mxGeometry x="492.5" y="889" width="86" height="42" as="geometry" />
        </mxCell>
        <mxCell id="i07Ub8UZMQ4JzRdAZHp2-24" style="edgeStyle=orthogonalEdgeStyle;rounded=0;orthogonalLoop=1;jettySize=auto;html=1;entryX=0;entryY=0.5;entryDx=0;entryDy=0;" edge="1" parent="1" source="i07Ub8UZMQ4JzRdAZHp2-25" target="i07Ub8UZMQ4JzRdAZHp2-9">
          <mxGeometry relative="1" as="geometry">
            <Array as="points">
              <mxPoint x="313" y="479" />
              <mxPoint x="313" y="293" />
            </Array>
          </mxGeometry>
        </mxCell>
        <mxCell id="i07Ub8UZMQ4JzRdAZHp2-25" value="报错反馈" style="html=1;whiteSpace=wrap;" vertex="1" parent="1">
          <mxGeometry x="339.5" y="457.5" width="86" height="42" as="geometry" />
        </mxCell>
        <mxCell id="i07Ub8UZMQ4JzRdAZHp2-26" value="[错误信息]" style="text;html=1;strokeColor=none;fillColor=none;align=center;verticalAlign=middle;whiteSpace=wrap;rounded=0;" vertex="1" parent="1">
          <mxGeometry x="432.5" y="453" width="60" height="30" as="geometry" />
        </mxCell>
        <mxCell id="i07Ub8UZMQ4JzRdAZHp2-28" value="" style="line;strokeWidth=3;rotatable=0;dashed=0;labelPosition=right;align=left;verticalAlign=middle;spacingTop=0;spacingLeft=6;points=[];portConstraint=eastwest;fontSize=13;" vertex="1" parent="1">
          <mxGeometry x="352.5" y="558" width="60" height="10" as="geometry" />
        </mxCell>
        <mxCell id="i07Ub8UZMQ4JzRdAZHp2-29" value="" style="endArrow=classic;html=1;rounded=0;exitX=0.5;exitY=1;exitDx=0;exitDy=0;entryX=0.533;entryY=0.2;entryDx=0;entryDy=0;entryPerimeter=0;" edge="1" parent="1" source="i07Ub8UZMQ4JzRdAZHp2-14" target="i07Ub8UZMQ4JzRdAZHp2-28">
          <mxGeometry width="50" height="50" relative="1" as="geometry">
            <mxPoint x="929.5" y="603" as="sourcePoint" />
            <mxPoint x="726.5" y="585" as="targetPoint" />
          </mxGeometry>
        </mxCell>
        <mxCell id="i07Ub8UZMQ4JzRdAZHp2-30" value="[查询成功]" style="text;html=1;strokeColor=none;fillColor=none;align=center;verticalAlign=middle;whiteSpace=wrap;rounded=0;" vertex="1" parent="1">
          <mxGeometry x="675" y="515" width="60" height="30" as="geometry" />
        </mxCell>
        <mxCell id="i07Ub8UZMQ4JzRdAZHp2-31" value="管理员信息" style="text;align=center;fontStyle=1;verticalAlign=middle;spacingLeft=3;spacingRight=3;strokeColor=none;rotatable=0;points=[[0,0.5],[1,0.5]];portConstraint=eastwest;html=1;" vertex="1" parent="1">
          <mxGeometry x="700" y="149" width="48" height="16" as="geometry" />
        </mxCell>
        <mxCell id="i07Ub8UZMQ4JzRdAZHp2-32" value="" style="endArrow=classic;html=1;rounded=0;exitX=0.395;exitY=0.642;exitDx=0;exitDy=0;exitPerimeter=0;" edge="1" parent="1" source="i07Ub8UZMQ4JzRdAZHp2-28">
          <mxGeometry width="50" height="50" relative="1" as="geometry">
            <mxPoint x="414.5" y="627" as="sourcePoint" />
            <mxPoint x="376.5" y="637" as="targetPoint" />
          </mxGeometry>
        </mxCell>
        <mxCell id="i07Ub8UZMQ4JzRdAZHp2-33" style="edgeStyle=orthogonalEdgeStyle;rounded=0;orthogonalLoop=1;jettySize=auto;html=1;" edge="1" parent="1" source="i07Ub8UZMQ4JzRdAZHp2-34" target="i07Ub8UZMQ4JzRdAZHp2-36">
          <mxGeometry relative="1" as="geometry" />
        </mxCell>
        <mxCell id="i07Ub8UZMQ4JzRdAZHp2-34" value="填写联系内容" style="html=1;whiteSpace=wrap;" vertex="1" parent="1">
          <mxGeometry x="339" y="640" width="86" height="42" as="geometry" />
        </mxCell>
        <mxCell id="i07Ub8UZMQ4JzRdAZHp2-62" style="edgeStyle=orthogonalEdgeStyle;rounded=0;orthogonalLoop=1;jettySize=auto;html=1;" edge="1" parent="1" source="i07Ub8UZMQ4JzRdAZHp2-36" target="i07Ub8UZMQ4JzRdAZHp2-61">
          <mxGeometry relative="1" as="geometry" />
        </mxCell>
        <mxCell id="i07Ub8UZMQ4JzRdAZHp2-36" value="存入代办" style="html=1;whiteSpace=wrap;" vertex="1" parent="1">
          <mxGeometry x="863" y="640" width="86" height="42" as="geometry" />
        </mxCell>
        <mxCell id="i07Ub8UZMQ4JzRdAZHp2-39" value="" style="line;strokeWidth=3;rotatable=0;dashed=0;labelPosition=right;align=left;verticalAlign=middle;spacingTop=0;spacingLeft=6;points=[];portConstraint=eastwest;fontSize=13;" vertex="1" parent="1">
          <mxGeometry x="1052" y="815" width="60" height="10" as="geometry" />
        </mxCell>
        <mxCell id="i07Ub8UZMQ4JzRdAZHp2-40" value="" style="endArrow=classic;html=1;rounded=0;exitX=0.49;exitY=0.932;exitDx=0;exitDy=0;exitPerimeter=0;entryX=0.5;entryY=0;entryDx=0;entryDy=0;" edge="1" parent="1" source="i07Ub8UZMQ4JzRdAZHp2-39" target="i07Ub8UZMQ4JzRdAZHp2-23">
          <mxGeometry width="50" height="50" relative="1" as="geometry">
            <mxPoint x="715" y="989" as="sourcePoint" />
            <mxPoint x="765" y="939" as="targetPoint" />
          </mxGeometry>
        </mxCell>
        <mxCell id="i07Ub8UZMQ4JzRdAZHp2-43" value="" style="line;strokeWidth=3;rotatable=0;dashed=0;labelPosition=right;align=left;verticalAlign=middle;spacingTop=0;spacingLeft=6;points=[];portConstraint=eastwest;fontSize=13;" vertex="1" parent="1">
          <mxGeometry x="352" y="1009" width="60" height="10" as="geometry" />
        </mxCell>
        <mxCell id="i07Ub8UZMQ4JzRdAZHp2-49" value="" style="endArrow=classic;html=1;rounded=0;exitX=0.489;exitY=0.76;exitDx=0;exitDy=0;exitPerimeter=0;entryX=0.5;entryY=0;entryDx=0;entryDy=0;" edge="1" parent="1" source="i07Ub8UZMQ4JzRdAZHp2-39" target="i07Ub8UZMQ4JzRdAZHp2-55">
          <mxGeometry width="50" height="50" relative="1" as="geometry">
            <mxPoint x="735" y="894" as="sourcePoint" />
            <mxPoint x="1082" y="935" as="targetPoint" />
          </mxGeometry>
        </mxCell>
        <mxCell id="i07Ub8UZMQ4JzRdAZHp2-55" value="更新代办" style="html=1;whiteSpace=wrap;" vertex="1" parent="1">
          <mxGeometry x="858" y="889" width="86" height="42" as="geometry" />
        </mxCell>
        <mxCell id="i07Ub8UZMQ4JzRdAZHp2-57" value="" style="endArrow=classic;html=1;rounded=0;exitX=0.5;exitY=1;exitDx=0;exitDy=0;entryX=0.459;entryY=0.259;entryDx=0;entryDy=0;entryPerimeter=0;" edge="1" parent="1" source="i07Ub8UZMQ4JzRdAZHp2-55" target="i07Ub8UZMQ4JzRdAZHp2-43">
          <mxGeometry width="50" height="50" relative="1" as="geometry">
            <mxPoint x="1088" y="959" as="sourcePoint" />
            <mxPoint x="380" y="1032" as="targetPoint" />
          </mxGeometry>
        </mxCell>
        <mxCell id="i07Ub8UZMQ4JzRdAZHp2-22" value="[查询失败]" style="text;html=1;strokeColor=none;fillColor=none;align=center;verticalAlign=middle;whiteSpace=wrap;rounded=0;" vertex="1" parent="1">
          <mxGeometry x="615" y="442" width="60" height="30" as="geometry" />
        </mxCell>
        <mxCell id="i07Ub8UZMQ4JzRdAZHp2-68" style="edgeStyle=orthogonalEdgeStyle;rounded=0;orthogonalLoop=1;jettySize=auto;html=1;" edge="1" parent="1" source="i07Ub8UZMQ4JzRdAZHp2-61" target="i07Ub8UZMQ4JzRdAZHp2-67">
          <mxGeometry relative="1" as="geometry" />
        </mxCell>
        <mxCell id="i07Ub8UZMQ4JzRdAZHp2-61" value="通知管理员" style="html=1;whiteSpace=wrap;" vertex="1" parent="1">
          <mxGeometry x="1043" y="640" width="86" height="42" as="geometry" />
        </mxCell>
        <mxCell id="i07Ub8UZMQ4JzRdAZHp2-63" value="[信件]" style="text;html=1;strokeColor=none;fillColor=none;align=center;verticalAlign=middle;whiteSpace=wrap;rounded=0;" vertex="1" parent="1">
          <mxGeometry x="625" y="630" width="60" height="30" as="geometry" />
        </mxCell>
        <mxCell id="i07Ub8UZMQ4JzRdAZHp2-71" style="edgeStyle=orthogonalEdgeStyle;rounded=0;orthogonalLoop=1;jettySize=auto;html=1;" edge="1" parent="1" source="i07Ub8UZMQ4JzRdAZHp2-64">
          <mxGeometry relative="1" as="geometry">
            <mxPoint x="378" y="1011" as="targetPoint" />
          </mxGeometry>
        </mxCell>
        <mxCell id="i07Ub8UZMQ4JzRdAZHp2-64" value="展示反馈" style="html=1;whiteSpace=wrap;" vertex="1" parent="1">
          <mxGeometry x="335" y="889" width="86" height="42" as="geometry" />
        </mxCell>
        <mxCell id="i07Ub8UZMQ4JzRdAZHp2-67" value="处理信息" style="html=1;whiteSpace=wrap;" vertex="1" parent="1">
          <mxGeometry x="1043" y="728" width="86" height="42" as="geometry" />
        </mxCell>
        <mxCell id="i07Ub8UZMQ4JzRdAZHp2-69" style="edgeStyle=orthogonalEdgeStyle;rounded=0;orthogonalLoop=1;jettySize=auto;html=1;" edge="1" parent="1">
          <mxGeometry relative="1" as="geometry">
            <mxPoint x="1085.89" y="773" as="sourcePoint" />
            <mxPoint x="1085.89" y="811" as="targetPoint" />
          </mxGeometry>
        </mxCell>
        <mxCell id="i07Ub8UZMQ4JzRdAZHp2-74" value="[回信]" style="text;html=1;strokeColor=none;fillColor=none;align=center;verticalAlign=middle;whiteSpace=wrap;rounded=0;" vertex="1" parent="1">
          <mxGeometry x="717" y="833" width="60" height="30" as="geometry" />
        </mxCell>
      </root>
    </mxGraphModel>
  </diagram>
</mxfile>
